<?xml version="1.0" encoding="UTF-8"?>
<svg id="Layer_1" data-name="Layer 1" xmlns="http://www.w3.org/2000/svg" xmlns:xlink="http://www.w3.org/1999/xlink" viewBox="0 0 1024 911.63">
  <defs>
    <style>
      .cls-1 {
        fill: url(#linear-gradient-2);
      }

      .cls-2 {
        fill: url(#linear-gradient-4);
      }

      .cls-3 {
        fill: url(#linear-gradient-3);
      }

      .cls-4 {
        fill: url(#linear-gradient-5);
      }

      .cls-5 {
        fill: url(#linear-gradient-7);
      }

      .cls-6 {
        fill: url(#linear-gradient-6);
      }

      .cls-7 {
        fill: url(#linear-gradient);
      }
    </style>
    <linearGradient id="linear-gradient" x1="269.73" y1="218.84" x2="744.85" y2="693.96" gradientUnits="userSpaceOnUse">
      <stop offset="0" stop-color="#ff7f21"/>
      <stop offset=".5" stop-color="#00ccc9"/>
      <stop offset="1" stop-color="#1b0032"/>
    </linearGradient>
    <linearGradient id="linear-gradient-2" x1="499.4" y1="285.8" x2="840.47" y2="626.87" xlink:href="#linear-gradient"/>
    <linearGradient id="linear-gradient-3" x1="176.26" y1="293.44" x2="506.88" y2="624.06" xlink:href="#linear-gradient"/>
    <linearGradient id="linear-gradient-4" x1="726.39" y1="350.92" x2="936.52" y2="561.05" xlink:href="#linear-gradient"/>
    <linearGradient id="linear-gradient-5" x1="103.95" y1="383.64" x2="257.39" y2="537.08" xlink:href="#linear-gradient"/>
    <linearGradient id="linear-gradient-6" x1="929.94" y1="404.61" x2="1034.65" y2="509.32" xlink:href="#linear-gradient"/>
    <linearGradient id="linear-gradient-7" x1="3.52" y1="441.53" x2="75" y2="513.01" xlink:href="#linear-gradient"/>
  </defs>
  <path class="cls-7" d="M500.83.41c23.74-3.47,49.04,15.72,50.26,39.98,1.09,21.76-2.16,50.69-2.06,74.07.98,226.96.13,453.45,3.23,681.24.33,24.3,3.37,76.55-7.79,96.61-19.37,34.81-80.9,19.61-81.76-21.94l.15-830.43c1.67-20.3,17.79-36.58,37.96-39.53Z"/>
  <path class="cls-1" d="M639.46,766.55c-4.19-4.18-7.08-12.53-10.64-17.64l-2.34-578.09c9.32-50.5,80.75-49.46,86.38,3.03v565.44c-2.35,37.09-47.31,53.26-73.4,27.25Z"/>
  <path class="cls-3" d="M334.19,146.23c.61-.09,1.22-.17,1.83-.23,25.3-2.67,47.15,17.76,47.25,43.2l2.27,538.09c.02,5.79-1.02,11.56-3.32,16.87-17.55,40.43-79.07,33.99-83.04-15.15-.08-1.01-.1-2.02-.1-3.03l.11-537.69c0-2.41.16-4.82.6-7.18,3.18-17.28,16.74-32.32,34.41-34.88Z"/>
  <path class="cls-2" d="M800.17,635.6c-8.37-8.36-12.01-24.47-13.02-36.08-8.2-93.67,6.06-199.44.44-294.38,6.99-55.03,81.17-55.21,88.68-.08v303.02c-4.86,35.78-49.43,54.17-76.1,27.52Z"/>
  <path class="cls-4" d="M173.49,324.79c27.43-3.98,48.45,15.97,51.32,42.5,4.46,41.21,4.51,146.21-.34,187.16-6.46,54.62-80.14,54.41-85.97,3.31-7.03-61.63,5.09-136.16.19-199.2,3.77-16.4,17.84-31.31,34.8-33.77Z"/>
  <path class="cls-6" d="M977.01,369.36c26.29-3.69,43.32,18.34,45.46,42.45,1.8,20.38,2.75,85.04-1.4,103-9.54,41.27-73.76,37.13-79.14-7.58-2.21-18.34-2.65-89.83.74-106.53,3.35-16.47,17.85-29.02,34.35-31.34Z"/>
  <path class="cls-5" d="M30.6,423.03c44.63-7.71,52.65,38.01,48.45,72.3-5.97,48.7-71.32,46.83-77.18,5.61-3.77-26.54-5.11-72.06,28.72-77.91Z"/>
</svg>